<?xml version="1.0" standalone="no"?>
<!DOCTYPE svg PUBLIC "-//W3C//DTD SVG 20010904//EN"
 "http://www.w3.org/TR/2001/REC-SVG-20010904/DTD/svg10.dtd">
<svg version="1.0" xmlns="http://www.w3.org/2000/svg"
 width="591.000000pt" height="591.000000pt" viewBox="0 0 591.000000 591.000000"
 preserveAspectRatio="xMidYMid meet">
<metadata>
Created by potrace 1.14, written by Peter Selinger 2001-2017
</metadata>
<g transform="translate(0.000000,591.000000) scale(0.100000,-0.100000)"
fill="#000000" stroke="none">
<path d="M3005 5140 c-575 -37 -1160 -305 -1580 -725 -124 -124 -212 -233
-317 -390 -75 -113 -220 -390 -233 -446 -6 -25 -2 -27 146 -85 84 -32 155 -60
159 -62 3 -1 23 37 44 85 290 673 925 1154 1665 1263 228 33 557 23 747 -23
l51 -12 -624 -1904 c-342 -1048 -623 -1908 -623 -1912 0 -12 295 -106 404
-129 237 -50 535 -48 773 6 706 158 1240 702 1393 1419 31 144 39 446 16 605
-71 482 -315 900 -699 1194 -95 73 -270 176 -358 213 -38 15 -69 32 -69 36 0
5 50 161 111 348 60 186 107 343 104 349 -10 16 -274 97 -402 124 -219 45
-464 61 -708 46z m1060 -1354 c103 -70 268 -229 343 -330 212 -289 317 -662
283 -1005 -36 -361 -174 -654 -426 -907 -216 -216 -453 -345 -760 -411 -157
-34 -625 -18 -625 22 0 12 898 2763 907 2777 7 12 180 -79 278 -146z"/>
</g>
</svg>
